<?xml version="1.0" encoding="utf-8"?>
<!-- Generator: Adobe Illustrator 25.2.3, SVG Export Plug-In . SVG Version: 6.00 Build 0)  -->
<svg version="1.1" id="Layer_1" xmlns="http://www.w3.org/2000/svg" xmlns:xlink="http://www.w3.org/1999/xlink" x="0px" y="0px"
	 viewBox="0 0 85 85" style="enable-background:new 0 0 85 85;" xml:space="preserve">
<style type="text/css">
	.st0{fill:none;stroke:#92287F;stroke-width:2;stroke-linecap:round;stroke-linejoin:round;stroke-miterlimit:10;}
	.st1{fill:none;stroke:#1D4C84;stroke-width:2;stroke-linecap:square;stroke-linejoin:round;stroke-miterlimit:10;}
	.st2{fill:none;stroke:#1D4C84;stroke-width:2;stroke-linejoin:round;stroke-miterlimit:10;}
	.st3{fill:none;stroke:#1D4C84;stroke-width:2;stroke-miterlimit:10;}
</style>
<g>
	<line class="st0" x1="46.3" y1="19" x2="46.3" y2="12.3"/>
	<line class="st0" x1="66.2" y1="38.9" x2="72.9" y2="38.9"/>
	<line class="st0" x1="60.4" y1="52.9" x2="65.1" y2="57.6"/>
	<line class="st0" x1="27.6" y1="20.1" x2="32.3" y2="24.8"/>
	<line class="st0" x1="65.1" y1="20.1" x2="60.4" y2="24.8"/>
	<line class="st0" x1="56.6" y1="14.4" x2="54" y2="20.6"/>
	<line class="st0" x1="70.9" y1="28.9" x2="64.7" y2="31.4"/>
	<line class="st0" x1="53.8" y1="57.2" x2="56.3" y2="63.4"/>
	<line class="st0" x1="36.3" y1="14.3" x2="38.9" y2="20.5"/>
	<line class="st0" x1="64.6" y1="46.6" x2="70.8" y2="49.2"/>
	<path class="st1" d="M49,64.4l-6.8-6.6c0,0-1.1-1.5-3.2-0.8l-5.2,1.7c0,0-4-4.6-6.1-7.9c-2.3-3.1-5.2-8.5-5.2-8.5l3.5-4.2
		c1.4-1.7,0.4-3.3,0.4-3.3l-3.7-8.7c-0.7-1.5-1.8-1.4-1.8-1.4c-1.4-0.2-6.3,3-6.3,3C12,29.2,12.2,31,12.2,31
		c-0.5,10.8,8.7,23,9.4,24.1c0.9,1.3,8.8,14,19.1,17.4c0,0,1.6,0.8,4-1c0,0,4.7-3.4,5-4.8C49.7,66.6,50.1,65.5,49,64.4z"/>
	<g>
		<polyline class="st2" points="53,46.1 53,31 46.6,41.3 56.9,41.3 		"/>
		<path class="st3" d="M36.4,35.3v-0.8c0-1.9,1.6-3.5,3.5-3.5s3.5,1.6,3.5,3.5c0,1.4-0.8,2.6-1.9,3.5c-1.4,1.2-4.7,3.8-5,6.7h7.9"/>
	</g>
</g>
</svg>
