<?xml version="1.0" encoding="utf-8"?>
<!-- Generator: Adobe Illustrator 25.2.3, SVG Export Plug-In . SVG Version: 6.00 Build 0)  -->
<svg version="1.1" id="Layer_1" xmlns="http://www.w3.org/2000/svg" xmlns:xlink="http://www.w3.org/1999/xlink" x="0px" y="0px"
	 viewBox="0 0 85 85" style="enable-background:new 0 0 85 85;" xml:space="preserve">
<style type="text/css">
	.st0{fill:none;stroke:#1D4C84;stroke-width:2;stroke-linecap:round;stroke-linejoin:round;stroke-miterlimit:10;}
	.st1{fill:none;stroke:#1D4C84;stroke-width:2;stroke-linejoin:round;stroke-miterlimit:10;}
	.st2{fill:none;stroke:#1D4C84;stroke-width:2;stroke-miterlimit:10;}
	.st3{fill:none;stroke:#92278F;stroke-width:2;stroke-linecap:round;stroke-miterlimit:10;}
	.st4{fill:#92278F;stroke:#92278F;stroke-miterlimit:10;}
</style>
<g>
	<path class="st0" d="M51.6,38.9"/>
	<path class="st0" d="M62.7,27.9"/>
	<line class="st0" x1="30.4" y1="66.7" x2="54.6" y2="66.7"/>
	<g>
		<line class="st0" x1="38.3" y1="59" x2="38.3" y2="66.5"/>
		<line class="st0" x1="46.7" y1="59" x2="46.7" y2="66.5"/>
	</g>
	<path class="st1" d="M12.8,23.2c0-2.8,2.2-5,5-5h49.4c2.8,0,5,2.2,5,5v30.5c0,2.8-2.2,5-5,5H17.8c-2.8,0-5-2.2-5-5
		C12.8,53.7,12.8,23.2,12.8,23.2z"/>
	<line class="st1" x1="17" y1="53.6" x2="68.1" y2="53.6"/>
</g>
<g>
	<rect x="23" y="31.5" class="st2" width="14.3" height="14.9"/>
	<g>
		<line class="st3" x1="45.5" y1="31.8" x2="60.9" y2="31.8"/>
		<line class="st3" x1="45.5" y1="38.9" x2="60.9" y2="38.9"/>
		<line class="st3" x1="45.5" y1="46.1" x2="60.9" y2="46.1"/>
	</g>
</g>
<g>
	<g>
		<path class="st4" d="M72.4,29.5"/>
		<path class="st4" d="M17,29.5"/>
		<g>
			<g>
				<g>
					<circle class="st4" cx="20.8" cy="23.7" r="0.8"/>
				</g>
			</g>
			<g>
				<g>
					<circle class="st4" cx="28.3" cy="23.7" r="0.8"/>
				</g>
			</g>
			<g>
				<g>
					<circle class="st4" cx="35.7" cy="23.7" r="0.8"/>
				</g>
			</g>
		</g>
	</g>
</g>
</svg>
