<?xml version="1.0" encoding="utf-8"?>
<!-- Generator: Adobe Illustrator 26.0.2, SVG Export Plug-In . SVG Version: 6.00 Build 0)  -->
<svg version="1.1" id="Layer_1" xmlns="http://www.w3.org/2000/svg" xmlns:xlink="http://www.w3.org/1999/xlink" x="0px" y="0px"
	 viewBox="0 0 85 85" style="enable-background:new 0 0 85 85;" xml:space="preserve">
<style type="text/css">
	.st0{fill:none;stroke:#1D4C84;stroke-width:2;stroke-linejoin:round;stroke-miterlimit:10;}
	.st1{fill:none;stroke:#1D4C84;stroke-width:2;stroke-miterlimit:10;}
	.st2{fill:none;stroke:#92278F;stroke-width:2;stroke-miterlimit:10;}
</style>
<g>
	<path class="st0" d="M57.1,16.7c2.2,0,4,1.8,4,4v43.6c0,2.2-1.8,4-4,4H27.9c-2.2,0-4-1.8-4-4V20.7c0-2.2,1.8-4,4-4H57.1z"/>
	<line class="st1" x1="24.2" y1="33.7" x2="61" y2="33.7"/>
	<line class="st1" x1="36.3" y1="33.9" x2="36.3" y2="68.1"/>
	<line class="st1" x1="48.7" y1="33.9" x2="48.7" y2="68"/>
	<line class="st2" x1="47" y1="22.3" x2="47" y2="28.5"/>
	<line class="st2" x1="53.9" y1="22.3" x2="53.9" y2="28.5"/>
	<line class="st2" x1="24.2" y1="45.2" x2="61" y2="45.2"/>
	<line class="st2" x1="24.2" y1="56.7" x2="48.5" y2="56.7"/>
</g>
</svg>
