<?xml version="1.0" encoding="utf-8"?>
<!-- Generator: Adobe Illustrator 25.2.0, SVG Export Plug-In . SVG Version: 6.00 Build 0)  -->
<svg version="1.1" id="Layer_1" xmlns="http://www.w3.org/2000/svg" xmlns:xlink="http://www.w3.org/1999/xlink" x="0px" y="0px"
	 viewBox="0 0 85 85" style="enable-background:new 0 0 85 85;" xml:space="preserve">
<style type="text/css">
	.st0{fill:none;stroke:#1D4C84;stroke-width:2.001;stroke-linejoin:round;stroke-miterlimit:10.0002;}
	.st1{fill:none;stroke:#1D4C84;stroke-width:2;stroke-linejoin:round;stroke-miterlimit:10;}
	.st2{fill:none;stroke:#1D4C84;stroke-width:2;stroke-linecap:round;stroke-linejoin:round;stroke-miterlimit:10;}
	.st3{fill:#1D4C84;}
	.st4{fill:#92278F;}
</style>
<g>
	<ellipse transform="matrix(0.9234 -0.3839 0.3839 0.9234 -15.7138 16.3807)" class="st0" cx="33.2" cy="47.6" rx="3.9" ry="3.1"/>
	<circle class="st1" cx="34.6" cy="49.6" r="17.2"/>
	<g>
		<line class="st2" x1="34.6" y1="23.2" x2="34.6" y2="32"/>
		<line class="st2" x1="34.6" y1="67.2" x2="34.6" y2="76"/>
	</g>
	<g>
		<line class="st2" x1="61" y1="49.6" x2="52.2" y2="49.6"/>
		<line class="st2" x1="17" y1="49.6" x2="8.2" y2="49.6"/>
	</g>
	<g>
		<line class="st2" x1="53.2" y1="31" x2="47" y2="37.2"/>
		<line class="st2" x1="22.1" y1="62.1" x2="15.9" y2="68.3"/>
	</g>
	<g>
		<line class="st2" x1="15.9" y1="31" x2="22.1" y2="37.2"/>
		<line class="st2" x1="47" y1="62.1" x2="53.2" y2="68.3"/>
	</g>
	<path class="st1" d="M42.1,29.4c0.2-6.7,5.3-12.3,12.1-13.2c7.6-0.9,14.4,4.5,15.3,12c0.9,7.5-4.5,14.4-12,15.3
		c-0.8,0.1-1.6,0.1-2.4,0.1"/>
	<g>
		<line class="st2" x1="53.3" y1="9" x2="54.2" y2="16"/>
	</g>
	<g>
		<line class="st2" x1="76.8" y1="27.4" x2="69.8" y2="28.2"/>
	</g>
	<g>
		<line class="st2" x1="68.9" y1="13.3" x2="64.5" y2="18.9"/>
	</g>
	<g>
		<line class="st2" x1="39.2" y1="16.9" x2="44.8" y2="21.3"/>
		<line class="st2" x1="67" y1="38.6" x2="72.5" y2="42.9"/>
	</g>
</g>
<g>
	<path class="st3" d="M57,38.1c-0.7,0-1.3-0.2-1.7-0.7C55.2,37.3,55,37,55,36.8c-0.3-1.1,0.6-2.2,1.9-2.6c1-0.3,2.1-0.1,2.6,0.5
		c0.2,0.2,0.3,0.4,0.4,0.7c0.3,1-0.6,2.2-1.9,2.6C57.7,38.1,57.3,38.1,57,38.1z"/>
</g>
<path class="st3" d="M58.6,25.1c-0.9,0-1.7-0.7-1.8-1.6c-0.1-1,0.6-1.9,1.6-2l0.2,0c0.9,0,1.7,0.7,1.8,1.6c0.1,0.5-0.1,1-0.4,1.3
	c-0.3,0.4-0.7,0.6-1.2,0.7L58.6,25.1z"/>
<path class="st4" d="M50.4,27.3c-0.9,0-1.7-0.7-1.8-1.6c-0.1-0.5,0.1-1,0.4-1.3c0.3-0.4,0.7-0.6,1.2-0.7l0.2,0
	c0.9,0,1.7,0.7,1.8,1.6c0.1,0.5-0.1,1-0.4,1.3c-0.3,0.4-0.7,0.6-1.2,0.7L50.4,27.3z"/>
<g>
	<g>
		<g>
			<path class="st4" d="M61.9,31c-1.1,0-2-0.6-2.1-1.5c-0.1-1,0.7-1.9,2.1-2.1c0.1,0,0.3,0,0.4,0c1.1,0,2,0.6,2.1,1.5
				c0.1,1-0.8,1.9-2.1,2.1C62.2,31,62,31,61.9,31z"/>
		</g>
	</g>
</g>
<path class="st4" d="M29.9,60.2c-0.7,0-1.5-0.4-2-1c-0.7-0.8-0.9-1.8-0.6-2.6c0.1-0.3,0.3-0.5,0.5-0.6c0.3-0.2,0.7-0.4,1.1-0.4
	c0.7,0,1.5,0.4,2,1c0.7,0.8,0.9,1.8,0.6,2.6c-0.1,0.2-0.2,0.4-0.4,0.6C30.8,60.1,30.4,60.2,29.9,60.2z"/>
<path class="st3" d="M23.2,50.3c-1.1,0-2-0.9-2-2s0.9-2,2-2c1.1,0,1.9,0.9,1.9,2S24.3,50.3,23.2,50.3z"/>
<path class="st4" d="M26.9,42.8c-0.3,0-0.7-0.1-0.9-0.3c-0.9-0.6-0.9-1.9-0.1-3c0.8-1.1,2.1-1.4,2.9-0.8c0.5,0.4,0.8,1,0.7,1.7
	c-0.1,0.4-0.2,0.9-0.5,1.3C28.3,42.4,27.6,42.8,26.9,42.8z"/>
<path class="st3" d="M36,40.7c-1.1,0-2-0.9-2-2s0.9-2,2-2c1.1,0,1.9,0.9,1.9,2S37.1,40.7,36,40.7z"/>
<circle class="st4" cx="43.4" cy="42.4" r="2"/>
<path class="st4" d="M41.5,56c-0.4,0-0.8-0.1-1.2-0.2c-1.4-0.5-2.1-1.7-1.7-2.7c0.4-1,1.7-1.4,3.1-0.9c0.8,0.3,1.4,0.8,1.7,1.4
	c0.2,0.4,0.2,0.9,0,1.3C43.1,55.6,42.4,56,41.5,56z"/>
<path class="st3" d="M38.7,62.2c-1.1,0-2-0.9-2-2s0.9-2,2-2c1.1,0,1.9,0.9,1.9,2S39.8,62.2,38.7,62.2z"/>
<circle class="st4" cx="45.7" cy="48.7" r="2"/>
</svg>
