<?xml version="1.0" encoding="utf-8"?>
<!-- Generator: Adobe Illustrator 25.2.3, SVG Export Plug-In . SVG Version: 6.00 Build 0)  -->
<svg version="1.1" id="Layer_1" xmlns="http://www.w3.org/2000/svg" xmlns:xlink="http://www.w3.org/1999/xlink" x="0px" y="0px"
	 viewBox="0 0 85 85" style="enable-background:new 0 0 85 85;" xml:space="preserve">
<style type="text/css">
	.st0{fill:none;stroke:#92287F;stroke-width:2;stroke-miterlimit:10;}
	.st1{fill:none;stroke:#92287F;stroke-width:2;stroke-linecap:round;stroke-miterlimit:10;}
	.st2{fill:none;stroke:#1D4C84;stroke-width:2;stroke-linejoin:round;stroke-miterlimit:10;}
</style>
<g>
	<g>
		<polygon class="st0" points="42.4,24.6 29.3,31.4 29.3,46.7 42.4,54.3 55.7,46.7 55.7,31.4 		"/>
		<g>
			<line class="st1" x1="34.4" y1="34.4" x2="42.5" y2="38.7"/>
			<line class="st1" x1="50.6" y1="34.4" x2="42.5" y2="38.7"/>
		</g>
		<line class="st1" x1="42.5" y1="38.9" x2="42.5" y2="48.4"/>
	</g>
	<path class="st2" d="M12.9,55.5v-32c0-2.4,1.9-4.3,4.3-4.3h50.5c2.4,0,4.3,1.9,4.3,4.3v32"/>
	<path class="st2" d="M6.1,60.1c0,0,1.3,5.7,5.4,5.7h62c4.2,0,5.4-5.7,5.4-5.7S6.1,60.1,6.1,60.1z"/>
</g>
</svg>
