<?xml version="1.0" encoding="utf-8"?>
<!-- Generator: Adobe Illustrator 25.2.0, SVG Export Plug-In . SVG Version: 6.00 Build 0)  -->
<svg version="1.1" id="Layer_1" xmlns="http://www.w3.org/2000/svg" xmlns:xlink="http://www.w3.org/1999/xlink" x="0px" y="0px"
	 viewBox="0 0 85 85" style="enable-background:new 0 0 85 85;" xml:space="preserve">
<style type="text/css">
	.st0{fill:none;stroke:#1D4C84;stroke-width:2;stroke-linejoin:round;stroke-miterlimit:10;}
	.st1{fill:none;stroke:#1D4C84;stroke-width:2;stroke-miterlimit:10;}
	.st2{fill:none;stroke:#92278F;stroke-width:2;stroke-linejoin:round;stroke-miterlimit:10;}
	.st3{fill:none;stroke:#1D4C84;stroke-width:2;stroke-linecap:round;stroke-linejoin:round;stroke-miterlimit:10;}
	.st4{fill:#92278F;}
</style>
<line class="st0" x1="14.8" y1="30.7" x2="70.2" y2="30.7"/>
<path class="st1" d="M74.7,62.6c0,2-1.6,3.6-3.6,3.6H13.9c-2,0-3.6-1.6-3.6-3.6V22.4c0-2,1.6-3.6,3.6-3.6h57.3c2,0,3.6,1.6,3.6,3.6
	V62.6z"/>
<g>
	<path class="st2" d="M31.3,50.7v5.1c2.5,2.4,6.5,4,10.9,4c4.4,0,8.4-1.5,10.9-4v-9.3"/>
	<polyline class="st3" points="62.5,55.9 62.5,43.1 42.3,37.3 22,43.1 42.3,49.8 61.8,43.4 	"/>
</g>
<path class="st4" d="M18.6,26.9c-1.1,0-2-0.9-2-2s0.9-2,2-2c1.1,0,2,0.9,2,2S19.7,26.9,18.6,26.9z"/>
<circle class="st4" cx="26.1" cy="24.9" r="2"/>
<circle class="st4" cx="33.5" cy="24.9" r="2"/>
</svg>
