<?xml version="1.0" encoding="utf-8"?>
<!-- Generator: Adobe Illustrator 25.2.3, SVG Export Plug-In . SVG Version: 6.00 Build 0)  -->
<svg version="1.1" id="Layer_1" xmlns="http://www.w3.org/2000/svg" xmlns:xlink="http://www.w3.org/1999/xlink" x="0px" y="0px"
	 viewBox="0 0 85 85" style="enable-background:new 0 0 85 85;" xml:space="preserve">
<style type="text/css">
	.st0{fill:none;stroke:#1D4C84;stroke-width:2;stroke-linejoin:round;stroke-miterlimit:10;}
	.st1{fill:none;stroke:#1D4C84;stroke-width:2;stroke-linecap:round;stroke-miterlimit:10;}
	.st2{fill:none;stroke:#92278F;stroke-width:2;stroke-linejoin:round;stroke-miterlimit:10;}
</style>
<g>
	<line class="st0" x1="20.1" y1="31.4" x2="64.9" y2="31.4"/>
	<g>
		<path class="st0" d="M60.7,20.3h5.8c1.7,0,3.1,1.4,3.1,3.1v43.1c0,1.7-1.4,3.1-3.1,3.1h-48c-1.7,0-3.1-1.4-3.1-3.1V23.4
			c0-1.7,1.4-3.1,3.1-3.1h8.6"/>
		<line class="st0" x1="47" y1="20.3" x2="54.5" y2="20.3"/>
		<line class="st0" x1="33.3" y1="20.3" x2="40.8" y2="20.3"/>
		<line class="st1" x1="27.3" y1="15.4" x2="27.3" y2="26"/>
		<line class="st1" x1="54.7" y1="15.4" x2="54.7" y2="26"/>
		<line class="st1" x1="41" y1="15.4" x2="41" y2="26"/>
	</g>
	<g>
		<g>
			<line class="st2" x1="24.1" y1="45.5" x2="60.9" y2="45.5"/>
			<line class="st2" x1="24.1" y1="55.8" x2="60.9" y2="55.8"/>
		</g>
		<g>
			<line class="st2" x1="42.5" y1="63.8" x2="42.5" y2="37.4"/>
			<line class="st2" x1="32.3" y1="63.8" x2="32.3" y2="37.4"/>
			<line class="st2" x1="52.7" y1="63.8" x2="52.7" y2="37.4"/>
		</g>
	</g>
</g>
</svg>
