<?xml version="1.0" encoding="utf-8"?>
<!-- Generator: Adobe Illustrator 25.2.3, SVG Export Plug-In . SVG Version: 6.00 Build 0)  -->
<svg version="1.1" id="Layer_1" xmlns="http://www.w3.org/2000/svg" xmlns:xlink="http://www.w3.org/1999/xlink" x="0px" y="0px"
	 viewBox="0 0 85 85" style="enable-background:new 0 0 85 85;" xml:space="preserve">
<style type="text/css">
	.st0{fill:none;stroke:#92278F;stroke-width:2;stroke-linejoin:round;stroke-miterlimit:10;}
	.st1{fill:none;stroke:#1C4C83;stroke-width:2;stroke-linejoin:round;stroke-miterlimit:10;}
</style>
<path class="st0" d="M41.3,11c0.9-0.6,2.4-0.6,3.3,0.1l3.3,2.4c0.9,0.6,2.5,1.3,3.6,1.4l4.1,0.5c1.1,0.1,2.2,1.1,2.5,2.2l1,4
	c0.3,1.1,1.1,2.6,1.9,3.4l2.8,3c0.7,0.8,1,2.3,0.5,3.3L62.5,35c-0.5,1-0.8,2.7-0.8,3.8l0.2,4.1c0,1.1-0.7,2.4-1.7,2.8l-3.7,1.7
	c-1,0.5-2.4,1.5-3,2.4l-2.5,3.2c-0.7,0.9-2.1,1.3-3.1,1.1L43.9,53c-1.1-0.3-2.8-0.3-3.9-0.1l-4,0.9c-1.1,0.2-2.5-0.3-3.1-1.2
	l-2.3-3.4c-0.6-0.9-1.9-2.1-2.9-2.6L24,44.8c-1-0.5-1.7-1.8-1.6-2.9l0.4-4.1c0.1-1.1-0.2-2.8-0.6-3.8l-1.6-3.8
	c-0.4-1-0.1-2.5,0.7-3.3l2.9-2.9c0.8-0.8,1.7-2.3,2-3.3l1.2-3.9c0.3-1,1.5-2,2.6-2.1l4.1-0.3c1.1-0.1,2.8-0.6,3.7-1.2L41.3,11z"/>
<g>
	<polyline class="st1" points="37,58.9 29,75.1 26.2,63.8 15.7,68.5 24.3,50.7 	"/>
	<polyline class="st1" points="48,58.9 56,75.1 58.8,63.8 69.3,68.5 60.7,50.7 	"/>
</g>
<circle class="st1" cx="42.5" cy="32.6" r="13.2"/>
</svg>
