<?xml version="1.0" encoding="utf-8"?>
<!-- Generator: Adobe Illustrator 25.2.0, SVG Export Plug-In . SVG Version: 6.00 Build 0)  -->
<svg version="1.1" id="Layer_1" xmlns="http://www.w3.org/2000/svg" xmlns:xlink="http://www.w3.org/1999/xlink" x="0px" y="0px"
	 viewBox="0 0 85 85" style="enable-background:new 0 0 85 85;" xml:space="preserve">
<style type="text/css">
	.st0{fill:none;stroke:#1D4C84;stroke-width:2;stroke-linejoin:round;stroke-miterlimit:10;}
	.st1{fill:none;stroke:#1D4C84;stroke-width:2;stroke-miterlimit:10;}
	.st2{fill:none;stroke:#92278F;stroke-width:2;stroke-miterlimit:10;}
</style>
<g>
	<g>
		<g>
			<path class="st0" d="M64.8,37.1v-13c0-2.2,1.4-3.9,3.3-3.9c1.9,0,3.5,1.7,3.5,3.9v25.2L60.2,64.3c0,0-1.3,1.5-0.9,6.8"/>
			<path class="st1" d="M45.5,71.2l0-11.7c0-4.5,5.3-7.6,5.3-7.6c2.4-1.6,5.1-4.4,5.1-4.4l4.5-4.9c1.9-2,4.6-2.6,6-1.3
				c1.4,1.3,1.1,4-0.8,6.1l-6.4,6.9"/>
		</g>
		<g>
			<path class="st0" d="M20.2,37.1l0-13c0-2.2-1.4-3.9-3.3-3.9c-1.9,0-3.5,1.7-3.5,3.9l0,25.2l11.5,15.1c0,0,1.3,1.5,0.9,6.8"/>
			<path class="st1" d="M39.5,71.2l0-11.7c0-4.5-5.3-7.6-5.3-7.6c-2.4-1.6-5.1-4.4-5.1-4.4l-4.5-4.9c-1.9-2-4.6-2.6-6-1.3
				c-1.4,1.3-1.1,4,0.8,6.1l6.4,6.9"/>
		</g>
	</g>
	<g>
		<circle class="st1" cx="42.5" cy="24.3" r="14"/>
		<g>
			<path class="st2" d="M42.5,24.3c-3.3,0-6-1.4-6-3c0-1.7,2.7-3,6-3c2.8,0,5.2,1,5.9,2.3"/>
			<path class="st2" d="M42.5,24.3c3.3,0,6,1.4,6,3c0,1.7-2.7,3-6,3c-3,0-5.5-1.1-5.9-2.5"/>
			<line class="st2" x1="42.6" y1="14.8" x2="42.6" y2="33.8"/>
		</g>
	</g>
</g>
</svg>
