<?xml version="1.0" encoding="utf-8"?>
<!-- Generator: Adobe Illustrator 25.2.3, SVG Export Plug-In . SVG Version: 6.00 Build 0)  -->
<svg version="1.1" id="Layer_1" xmlns="http://www.w3.org/2000/svg" xmlns:xlink="http://www.w3.org/1999/xlink" x="0px" y="0px"
	 viewBox="0 0 85 85" style="enable-background:new 0 0 85 85;" xml:space="preserve">
<style type="text/css">
	.st0{fill:none;stroke:#1C4C83;stroke-width:2;stroke-linecap:round;stroke-miterlimit:10;}
	.st1{fill:none;stroke:#92278F;stroke-width:2;stroke-miterlimit:10;}
	.st2{fill:none;stroke:#1C4C83;stroke-width:2;stroke-miterlimit:10;}
	.st3{fill:#1C4C83;}
</style>
<g>
	<path class="st0" d="M61.6,54.1c-0.5,1.5-3.9,10.2-8.2,2.6l-6-9.5"/>
	<line class="st1" x1="60.3" y1="53.6" x2="68.5" y2="53.6"/>
	<path class="st2" d="M33.8,64.3c-1.2,0.3-3.9,0.4-5.6-2.5L21,49.6h-4.3"/>
	<line class="st0" x1="40.8" y1="51.6" x2="45.1" y2="59.3"/>
	<line class="st0" x1="34.6" y1="56.7" x2="37.4" y2="61.5"/>
	<path class="st2" d="M50.6,61.1c-1.2,0.5-3.6,1.5-5.6-1.8"/>
	<path class="st2" d="M41.9,63.2c0,0-2.6,1.8-4.5-1.7"/>
	<line class="st2" x1="16.7" y1="24.6" x2="30.8" y2="24.6"/>
	<polyline class="st2" points="6.2,20.5 16.4,20.5 16.4,54.1 6.1,54.1 	"/>
	<polyline class="st2" points="78.8,23.4 68.6,23.4 68.6,57 78.9,57 	"/>
	<path class="st1" d="M60.8,54.9l-11.6-22c-1-0.1-6-0.5-6-0.5l-6.8,6.9c-5.7,4.4-8.8-2.1-8.8-2.1l8.8-11.4c2.9-3.7,5.9-3.7,5.9-3.7
		l13.2,0l12.9,5.6"/>
</g>
<circle class="st3" cx="76.7" cy="48.6" r="2"/>
<circle class="st3" cx="8.3" cy="45.6" r="2"/>
</svg>
