<?xml version="1.0" encoding="utf-8"?>
<!-- Generator: Adobe Illustrator 25.2.3, SVG Export Plug-In . SVG Version: 6.00 Build 0)  -->
<svg version="1.1" id="Layer_1" xmlns="http://www.w3.org/2000/svg" xmlns:xlink="http://www.w3.org/1999/xlink" x="0px" y="0px"
	 viewBox="0 0 85 85" style="enable-background:new 0 0 85 85;" xml:space="preserve">
<style type="text/css">
	.st0{fill:none;stroke:#1D4C84;stroke-width:2;stroke-linecap:round;stroke-miterlimit:10;}
	.st1{fill:none;stroke:#1D4C84;stroke-width:2;stroke-linecap:round;stroke-linejoin:round;stroke-miterlimit:10;}
	.st2{fill:none;stroke:#1D4C84;stroke-width:2;stroke-linejoin:round;stroke-miterlimit:10;}
	.st3{fill:none;stroke:#92287F;stroke-width:2;stroke-linecap:round;stroke-linejoin:round;}
	.st4{fill:none;stroke:#92287F;stroke-width:2;stroke-linecap:round;stroke-linejoin:round;stroke-miterlimit:10;}
	.st5{fill:none;stroke:#1D4C84;stroke-width:2;stroke-miterlimit:10;}
	.st6{fill:none;stroke:#1D4C84;stroke-width:2;}
</style>
<g>
	<line class="st0" x1="77.6" y1="69.6" x2="81" y2="69.6"/>
	<line class="st1" x1="11.6" y1="69.6" x2="72.9" y2="69.6"/>
	<g>
		<polyline class="st2" points="16.7,65.5 16.7,51.5 26.6,29.9 36.7,51.5 36.7,69.5 		"/>
		<line class="st1" x1="54.4" y1="29.9" x2="26.6" y2="29.9"/>
		<line class="st1" x1="36.9" y1="51.5" x2="51.5" y2="51.5"/>
		<path class="st3" d="M3.9,33.1h5c0-1.9,1.5-3.4,3.4-3.4s3.4,1.5,3.4,3.4h3.1"/>
		<path class="st3" d="M47.8,18.2H45c0-1.5-1.3-2.8-2.8-2.8c-1.6,0-2.8,1.3-2.8,2.8h-5.1"/>
		<line class="st3" x1="47.9" y1="22.9" x2="53.5" y2="22.9"/>
		<line class="st3" x1="40" y1="24" x2="42.4" y2="24"/>
		<g>
			<path class="st1" d="M62.3,58c-4.2-2-7.5-6.7-6.4-14c1.1-7.5,5.3-21.2,11.4-21.2s10,13.1,11.3,21.1c1.7,10.7-4.8,15.2-10.9,15.3"
				/>
			<g>
				<line class="st4" x1="67.1" y1="52" x2="60.3" y2="46"/>
				<line class="st4" x1="67" y1="43.4" x2="62.9" y2="39.7"/>
			</g>
			<g>
				<line class="st4" x1="67.5" y1="52" x2="74.2" y2="46"/>
				<line class="st4" x1="67.6" y1="43.4" x2="71.7" y2="39.7"/>
			</g>
			<line class="st4" x1="67.3" y1="34.5" x2="67.3" y2="68.9"/>
		</g>
		<polyline class="st5" points="23.2,69.5 23.2,58.2 29.5,58.2 29.5,69.5 		"/>
		<path class="st6" d="M55.3,57.9"/>
	</g>
</g>
</svg>
