<?xml version="1.0" encoding="utf-8"?>
<!-- Generator: Adobe Illustrator 25.2.3, SVG Export Plug-In . SVG Version: 6.00 Build 0)  -->
<svg version="1.1" id="Layer_1" xmlns="http://www.w3.org/2000/svg" xmlns:xlink="http://www.w3.org/1999/xlink" x="0px" y="0px"
	 viewBox="0 0 85 85" style="enable-background:new 0 0 85 85;" xml:space="preserve">
<style type="text/css">
	.st0{fill:none;stroke:#1D4C84;stroke-width:2;stroke-linejoin:round;stroke-miterlimit:10;}
	.st1{fill:none;stroke:#1D4C84;stroke-width:2;stroke-linecap:round;stroke-miterlimit:10;}
	.st2{fill:none;stroke:#92287F;stroke-width:2;stroke-miterlimit:10;}
	.st3{fill:none;stroke:#1D4C84;stroke-width:2;stroke-linecap:round;stroke-linejoin:round;stroke-miterlimit:10;}
	.st4{fill:#FFFFFF;stroke:#1D4D83;stroke-width:2;stroke-miterlimit:10;}
	.st5{fill:#FFFFFF;}
	.st6{fill:none;stroke:#1D4D83;stroke-width:0.75;stroke-miterlimit:10;}
	.st7{fill:#1D4D83;}
</style>
<g>
	<path class="st0" d="M31.8,72.7V29.5c0-1.6,1.4-3,3-3h25.9c1.6,0,3,1.4,3,3v22.9"/>
	<path class="st0" d="M11.5,72.7V44.8c0-1.6,1.4-3,3-3h12.9"/>
	<g>
		<line class="st1" x1="43.3" y1="21.9" x2="43.3" y2="12.1"/>
		<line class="st1" x1="52.2" y1="21.9" x2="52.2" y2="12.1"/>
	</g>
	<line class="st1" x1="51.7" y1="17" x2="43.8" y2="17"/>
	<g>
		<line class="st2" x1="17" y1="50.3" x2="27.4" y2="50.3"/>
		<line class="st2" x1="17" y1="58" x2="27.4" y2="58"/>
		<line class="st2" x1="17" y1="65.8" x2="27.4" y2="65.8"/>
	</g>
	<line class="st3" x1="8.1" y1="72.9" x2="72.6" y2="72.9"/>
	<g>
		<line class="st2" x1="51.5" y1="65.2" x2="51.5" y2="72.7"/>
		<line class="st2" x1="44" y1="65.2" x2="44" y2="72.7"/>
	</g>
	<g>
		<line class="st2" x1="38.1" y1="34.2" x2="57.4" y2="34.2"/>
		<line class="st2" x1="38.1" y1="42" x2="57.4" y2="42"/>
		<line class="st2" x1="38.1" y1="49.7" x2="57.4" y2="49.7"/>
		<line class="st2" x1="38.1" y1="57.5" x2="57.4" y2="57.5"/>
		<line class="st2" x1="38.1" y1="65.2" x2="57.4" y2="65.2"/>
	</g>
</g>
<circle class="st4" cx="69.6" cy="59.9" r="9.6"/>
<g>
	<line class="st5" x1="61.8" y1="59.9" x2="77.4" y2="59.9"/>
	<g>
		<line class="st6" x1="61.8" y1="59.9" x2="72.1" y2="59.9"/>
		<g>
			<polygon class="st7" points="71,63.6 77.4,59.9 71,56.1 			"/>
		</g>
	</g>
</g>
</svg>
