<?xml version="1.0" encoding="utf-8"?>
<!-- Generator: Adobe Illustrator 25.2.3, SVG Export Plug-In . SVG Version: 6.00 Build 0)  -->
<svg version="1.1" id="Layer_1" xmlns="http://www.w3.org/2000/svg" xmlns:xlink="http://www.w3.org/1999/xlink" x="0px" y="0px"
	 viewBox="0 0 85 85" style="enable-background:new 0 0 85 85;" xml:space="preserve">
<style type="text/css">
	.st0{fill:none;stroke:#1D4C84;stroke-width:2;stroke-linejoin:round;stroke-miterlimit:10;}
	.st1{fill:none;stroke:#1D4C84;stroke-width:2;stroke-miterlimit:10;}
	.st2{fill:none;stroke:#92278F;stroke-width:2;stroke-linecap:round;stroke-linejoin:round;stroke-miterlimit:10;}
</style>
<g>
	<g>
		<polyline class="st0" points="39.6,31.2 33.7,26.3 33.7,26.3 13.6,44.4 13.6,67.4 28.5,67.4 28.5,54.3 38.9,54.3 38.9,67.4 
			53.9,67.4 53.9,58.5 		"/>
		<polyline class="st1" points="4.7,42.9 13.8,34.9 13.8,21.9 20.1,21.9 20.1,29.5 33.6,17.6 43.6,26.1 		"/>
	</g>
	<g>
		<path class="st2" d="M50.9,33.3c-0.5,0.2-1,0.5-1.3,0.8c-0.7,0.7-1.1,1.7-1.1,2.7c0,1.1,0.4,2.1,1.2,2.9"/>
		<path class="st2" d="M77.4,43.7c3.8-3.8,3.9-9.9,0.1-13.7s-9.9-3.7-13.7,0.1l-2.4,2.3l-2.3-2.3c-3.8-3.8-9.9-3.9-13.7-0.1
			c-3.7,3.7-3.7,9.9,0.1,13.7l15.9,15.8L77.4,43.7z"/>
	</g>
</g>
</svg>
