<?xml version="1.0" encoding="utf-8"?>
<!-- Generator: Adobe Illustrator 25.2.3, SVG Export Plug-In . SVG Version: 6.00 Build 0)  -->
<svg version="1.1" id="Layer_1" xmlns="http://www.w3.org/2000/svg" xmlns:xlink="http://www.w3.org/1999/xlink" x="0px" y="0px"
	 viewBox="0 0 85 85" style="enable-background:new 0 0 85 85;" xml:space="preserve">
<style type="text/css">
	.st0{fill:none;stroke:#92278F;stroke-width:2;stroke-miterlimit:10;}
	.st1{fill:none;stroke:#92278F;stroke-width:2;stroke-linecap:round;stroke-linejoin:round;stroke-miterlimit:10;}
	.st2{fill:none;stroke:#1D4C84;stroke-width:2;stroke-miterlimit:10;}
	.st3{fill:none;stroke:#1D4C84;stroke-width:2;stroke-linecap:round;stroke-linejoin:round;stroke-miterlimit:10;}
</style>
<g>
	<g>
		<circle class="st0" cx="42.5" cy="17.1" r="5.4"/>
		<path class="st1" d="M48.4,73.2l0.5-21.1c2-0.7,4.3-2.4,4.1-4.5l-1.6-16.1c-0.2-2.1-2.1-3.8-4.2-3.8h-9.5c-2.1,0-4,1.7-4.2,3.8
			l-1.6,16.1c-0.2,2.1,2.2,3.7,4.1,4.5l0.5,21.1"/>
	</g>
	<g>
		<g>
			<circle class="st2" cx="60.8" cy="23.1" r="4.8"/>
			<path class="st3" d="M66,73.2l0.5-18.7c1.8-0.6,3.9-2.1,3.7-4l-1.4-14.3c-0.2-1.8-1.9-3.4-3.7-3.4h-8"/>
		</g>
		<g>
			<circle class="st2" cx="24.2" cy="23.1" r="4.8"/>
			<path class="st3" d="M19,73.2l-0.5-18.7c-1.8-0.6-3.9-2.1-3.7-4l1.4-14.3c0.2-1.8,1.9-3.4,3.7-3.4h8"/>
		</g>
	</g>
</g>
</svg>
