<?xml version="1.0" encoding="utf-8"?>
<!-- Generator: Adobe Illustrator 25.2.3, SVG Export Plug-In . SVG Version: 6.00 Build 0)  -->
<svg version="1.1" id="Layer_1" xmlns="http://www.w3.org/2000/svg" xmlns:xlink="http://www.w3.org/1999/xlink" x="0px" y="0px"
	 viewBox="0 0 85 85" style="enable-background:new 0 0 85 85;" xml:space="preserve">
<style type="text/css">
	.st0{fill:none;stroke:#92287F;stroke-width:2;stroke-linecap:round;stroke-linejoin:round;stroke-miterlimit:10;}
	.st1{fill:none;stroke:#1D4C84;stroke-width:2;stroke-linecap:round;stroke-linejoin:round;stroke-miterlimit:10;}
	.st2{fill:none;stroke:#1D4C84;stroke-width:2;stroke-miterlimit:10;}
</style>
<g>
	<g>
		<path class="st0" d="M24.2,17.7c5.1-3.8,11.4-6,18.3-6c17,0,30.8,13.8,30.8,30.8S59.5,73.3,42.5,73.3S11.7,59.5,11.7,42.5
			c0-7.9,3-15.1,7.8-20.5"/>
	</g>
	<g>
		<path class="st1" d="M50.9,58.8c-1.9,2-3,2.7-5.1,3.9c-2,1.1-4.4,2.1-6.9,2.1c0,0,0,0-0.1,0c-1.9,0-3.4-0.8-4.1-1.9
			c-0.8-1.1-1-2.3-1-3.1c0-1.3,0.7-3.8,1.5-6.8s1.7-6.3,2.4-8.7c0.4-1.5,0.7-2.8,0.7-3c0-0.5-0.1-0.4-0.2-0.6
			c-0.2-0.1-0.8-0.2-1.4-0.2c-0.2,0-0.4,0-0.6,0c-0.3,0-0.6-0.1-0.8-0.3s-0.4-0.5-0.4-0.8v-1.6c0-0.6,0.5-1.1,1-1.1
			c2.3-0.2,7.8-0.7,11.7-1.6c0.4-0.1,0.8,0,1.1,0.3s0.4,0.7,0.3,1.1c-1.7,6.3-4.2,14.8-5.3,19.4c-0.3,1.1-0.4,2-0.5,2.5
			c0.1,0,0.9-0.4,1.5-0.6c1.8-0.7,2.1-0.9,3.1-1.4c0.5-0.3,1-0.5,1.5-0.1l1.3,1.1c0.3,0.2,0.4,0.4,0.5,0.7
			C51.1,58.3,51.1,58.6,50.9,58.8z"/>
		<path class="st2" d="M46.1,29.7L46.1,29.7c-1.7,0-3.1-0.8-3.9-1.9c-0.8-1-1.1-2.2-1.1-3.2s0.4-2.2,1.2-3.2s2.1-1.8,3.8-1.8
			c2.8,0,5.1,2.3,5.2,5.1C51.3,27.5,49,29.7,46.1,29.7z"/>
	</g>
</g>
</svg>
