<?xml version="1.0" encoding="utf-8"?>
<!-- Generator: Adobe Illustrator 25.2.3, SVG Export Plug-In . SVG Version: 6.00 Build 0)  -->
<svg version="1.1" id="Layer_1" xmlns="http://www.w3.org/2000/svg" xmlns:xlink="http://www.w3.org/1999/xlink" x="0px" y="0px"
	 viewBox="0 0 85 85" style="enable-background:new 0 0 85 85;" xml:space="preserve">
<style type="text/css">
	.st0{fill:none;stroke:#1D4C84;stroke-width:2;stroke-linecap:round;stroke-linejoin:round;stroke-miterlimit:10;}
	.st1{fill:none;stroke:#92278F;stroke-width:2;stroke-linecap:round;stroke-miterlimit:10;}
	.st2{fill:none;stroke:#92278F;stroke-width:2;stroke-miterlimit:10;}
</style>
<g>
	<g>
		<g>
			<path class="st0" d="M67.8,41.3c1.8-6.5,2.2-16.5-7.9-24c0,0-14.3-10.6-31.7-0.8c0,0-9.7,4.2-7.6,17.6c0,0,0.4,3.7-0.8,5.5
				l-6.4,7.5c0,0-0.9,2.2,1.7,2.5l3.9,0.8c0,0,1.6,3.2,1.8,5.6c0.2,2.4-0.4,5.5-0.4,5.5s-1.4,3.7,0.8,5.3c0.5,0.3,2,1.9,13.4-0.5
				c0,0,1.1,0.5,1.8,6.5"/>
			<line class="st0" x1="21.3" y1="56.1" x2="26.2" y2="56.2"/>
		</g>
	</g>
	<g>
		<path class="st1" d="M54.4,56.6c0-2.3,1.5-4.3,3.5-5.1"/>
		<line class="st1" x1="66.8" y1="65.9" x2="71.7" y2="72.3"/>
		<path class="st2" d="M71.5,56.6c0,6.4-5.2,11.6-11.6,11.6c-6.4,0-11.6-5.2-11.6-11.6c0-6.4,5.2-11.6,11.6-11.6
			C66.3,45.1,71.5,50.2,71.5,56.6z"/>
	</g>
</g>
</svg>
