<?xml version="1.0" encoding="utf-8"?>
<!-- Generator: Adobe Illustrator 25.2.3, SVG Export Plug-In . SVG Version: 6.00 Build 0)  -->
<svg version="1.1" id="Layer_1" xmlns="http://www.w3.org/2000/svg" xmlns:xlink="http://www.w3.org/1999/xlink" x="0px" y="0px"
	 viewBox="0 0 85 85" style="enable-background:new 0 0 85 85;" xml:space="preserve">
<style type="text/css">
	.st0{fill:none;stroke:#1D4C84;stroke-width:2;stroke-linejoin:round;stroke-miterlimit:10;}
	.st1{fill:none;stroke:#92278F;stroke-width:2;stroke-miterlimit:10;}
	.st2{fill:none;stroke:#1D4C84;stroke-width:2;stroke-linecap:round;stroke-linejoin:round;stroke-miterlimit:10;}
</style>
<g>
	<path class="st0" d="M32.7,22.4v-3.3c0-1.5,1.2-2.8,2.8-2.8h12.6c1.6,0,2.9,1.3,2.9,2.8v3.3"/>
	<polygon class="st1" points="52.3,42.1 45.3,42.1 45.3,35.2 38.3,35.2 38.3,42.1 31.4,42.1 31.4,49.1 38.3,49.1 38.3,56.1 
		45.3,56.1 45.3,49.1 52.3,49.1 	"/>
	<g>
		<line class="st2" x1="22.5" y1="35.5" x2="22.5" y2="55.8"/>
		<line class="st2" x1="61.1" y1="35.5" x2="61.1" y2="55.8"/>
	</g>
	<path class="st0" d="M69.6,61.1c0,2.1-1.7,3.8-3.8,3.8H17.9c-2.1,0-3.8-1.7-3.8-3.8V30.2c0-2.1,1.7-3.8,3.8-3.8h48
		c2.1,0,3.8,1.7,3.8,3.8L69.6,61.1L69.6,61.1z"/>
</g>
</svg>
