<?xml version="1.0" encoding="utf-8"?>
<!-- Generator: Adobe Illustrator 25.2.3, SVG Export Plug-In . SVG Version: 6.00 Build 0)  -->
<svg version="1.1" id="Layer_1" xmlns="http://www.w3.org/2000/svg" xmlns:xlink="http://www.w3.org/1999/xlink" x="0px" y="0px"
	 viewBox="0 0 85 85" style="enable-background:new 0 0 85 85;" xml:space="preserve">
<style type="text/css">
	.st0{fill:none;stroke:#1D4C84;stroke-width:2;stroke-linecap:round;stroke-linejoin:round;stroke-miterlimit:10;}
	.st1{fill:none;stroke:#92278F;stroke-width:2;stroke-linecap:round;stroke-linejoin:round;stroke-miterlimit:10;}
</style>
<g>
	<path class="st0" d="M19,53.3l-5.2,15l15.3-3c4.3,2.8,9.4,4.4,14.8,4.4c15,0,27.2-12.2,27.2-27.2c0-15-12.2-27.2-27.2-27.2
		c-15,0-27.2,12.2-27.2,27.2c0,1.4,0.1,2.9,0.3,4.3"/>
	<g>
		<path class="st1" d="M34.3,53c6.7-4.7,6.7-8.5,6.7-9.8s0-8.3,0-8.3H28.9v8.6h7c0,0-1,3.7-5.4,6.2"/>
		<path class="st1" d="M51.6,53c6.7-4.7,6.7-8.5,6.7-9.8s0-8.3,0-8.3H46.2v8.6h7c0,0-1,3.7-5.4,6.2"/>
	</g>
</g>
</svg>
