<?xml version="1.0" encoding="utf-8"?>
<!-- Generator: Adobe Illustrator 25.2.0, SVG Export Plug-In . SVG Version: 6.00 Build 0)  -->
<svg version="1.1" id="Layer_1" xmlns="http://www.w3.org/2000/svg" xmlns:xlink="http://www.w3.org/1999/xlink" x="0px" y="0px"
	 viewBox="0 0 85 85" style="enable-background:new 0 0 85 85;" xml:space="preserve">
<style type="text/css">
	.st0{fill:none;stroke:#1C4C83;stroke-width:2;stroke-linejoin:round;stroke-miterlimit:10;}
	.st1{fill:none;stroke:#92278F;stroke-width:2;stroke-linecap:round;stroke-linejoin:round;stroke-miterlimit:10;}
	.st2{fill:none;stroke:#92278F;stroke-width:2;stroke-miterlimit:10;}
</style>
<g>
	<g>
		<path class="st0" d="M11.4,22.8c0-1.6,1.4-3,3-3h56.2c1.6,0,3,1.4,3,3v39.4c0,1.7-1.4,3-3,3H14.4c-1.6,0-3-1.3-3-3V22.8z"/>
		<line class="st0" x1="23.2" y1="20" x2="23.2" y2="65"/>
		<line class="st1" x1="17.4" y1="40.3" x2="17.4" y2="44.7"/>
	</g>
</g>
<polygon class="st2" points="60.4,38.2 52,38.2 52,29.9 43.7,29.9 43.7,38.2 35.5,38.2 35.5,46.5 43.7,46.5 43.7,54.9 52,54.9 
	52,46.5 60.4,46.5 "/>
</svg>
