<?xml version="1.0" encoding="utf-8"?>
<!-- Generator: Adobe Illustrator 25.2.3, SVG Export Plug-In . SVG Version: 6.00 Build 0)  -->
<svg version="1.1" id="Layer_1" xmlns="http://www.w3.org/2000/svg" xmlns:xlink="http://www.w3.org/1999/xlink" x="0px" y="0px"
	 viewBox="0 0 85 85" style="enable-background:new 0 0 85 85;" xml:space="preserve">
<style type="text/css">
	.st0{fill:none;stroke:#92278F;stroke-width:2;stroke-miterlimit:10;}
	.st1{fill:none;stroke:#1D4C84;stroke-width:2;stroke-miterlimit:10;}
</style>
<g>
	<g>
		<g>
			<path class="st0" d="M45.3,26.1c3.2,0.1,6.4,1.3,8.8,3.8c2.5,2.4,3.8,5.6,3.9,8.9"/>
			<path class="st0" d="M45.5,18.9c5,0.1,9.9,2.1,13.7,5.8c3.8,3.8,5.8,8.6,6,13.6"/>
		</g>
	</g>
	<g>
		<path class="st1" d="M64.7,65.9l-10.9-7.3"/>
		<path class="st1" d="M26.3,31.3l-7.3-10.9c-0.5,0.4-0.8,0.7-0.8,0.7c-2.7,2.4-2.1,4.6-2.1,4.6c1.8,13,15.5,25.5,16.6,26.6
			c1.4,1.3,13.6,14.7,26.6,16.6c0,0,2.1,0.6,4.6-2.1l0.8-0.8c0.9-1.2,4.1-5.4,4.2-6.1c0,0,0.3-1.4-1.3-2.5L58,50.9
			c0,0-1.7-1.5-4-0.2l-5.8,3.2c0,0-5.8-4.6-9-8.1c-3.5-3.2-8.1-9-8.1-9l3.2-5.8c1.3-2.4-0.2-4-0.2-4l-6.4-9.6
			c-1.1-1.6-2.5-1.3-2.5-1.3c-0.7,0-2,0.8-3.2,1.8"/>
	</g>
</g>
</svg>
