<?xml version="1.0" encoding="utf-8"?>
<!-- Generator: Adobe Illustrator 25.2.3, SVG Export Plug-In . SVG Version: 6.00 Build 0)  -->
<svg version="1.1" id="Layer_1" xmlns="http://www.w3.org/2000/svg" xmlns:xlink="http://www.w3.org/1999/xlink" x="0px" y="0px"
	 viewBox="0 0 85 85" style="enable-background:new 0 0 85 85;" xml:space="preserve">
<style type="text/css">
	.st0{fill:none;stroke:#1D4C84;stroke-width:2;stroke-miterlimit:10;}
	.st1{fill:none;stroke:#1D4C84;stroke-width:2;stroke-linecap:round;stroke-miterlimit:10;}
	.st2{fill:none;stroke:#1D4C84;stroke-width:2;stroke-linejoin:round;stroke-miterlimit:10;}
	.st3{fill:none;stroke:#1D4C84;stroke-width:2;stroke-linecap:round;stroke-linejoin:round;stroke-miterlimit:10;}
	.st4{fill:none;stroke:#92278F;stroke-width:2;stroke-miterlimit:10;}
</style>
<g>
	<line class="st0" x1="38.2" y1="32.8" x2="52.8" y2="32.8"/>
	<line class="st0" x1="38.2" y1="39.9" x2="52.8" y2="39.9"/>
	<line class="st0" x1="38.2" y1="47" x2="52.8" y2="47"/>
	<line class="st0" x1="38.2" y1="61.3" x2="52.8" y2="61.3"/>
	<line class="st0" x1="38.2" y1="68.4" x2="52.8" y2="68.4"/>
	<line class="st0" x1="38.2" y1="54.2" x2="52.8" y2="54.2"/>
	<line class="st0" x1="38.2" y1="75.6" x2="52.8" y2="75.6"/>
	<line class="st1" x1="45.5" y1="8.1" x2="45.5" y2="13.9"/>
	<polyline class="st2" points="32.9,76.9 32.9,25.6 58.1,25.6 58.1,76.9 	"/>
	<polyline class="st2" points="37.4,25.4 37.4,19.4 53.6,19.4 53.6,25.4 	"/>
	<polyline class="st3" points="40.9,14.1 50.1,14.1 50.1,19.3 	"/>
	<polyline class="st2" points="13.9,76.9 13.9,46.6 27.8,46.6 	"/>
	<g>
		<line class="st4" x1="26.5" y1="62.2" x2="26.5" y2="67.1"/>
		<line class="st4" x1="20.7" y1="62.2" x2="20.7" y2="67.1"/>
	</g>
	<g>
		<line class="st4" x1="26.5" y1="52.4" x2="26.5" y2="57.3"/>
		<line class="st4" x1="20.7" y1="52.4" x2="20.7" y2="57.3"/>
	</g>
	<g>
		<line class="st4" x1="26.5" y1="72" x2="26.5" y2="76.9"/>
		<line class="st4" x1="20.7" y1="72" x2="20.7" y2="76.9"/>
	</g>
	<polyline class="st2" points="71.1,76.9 71.1,56.5 63.5,56.5 	"/>
	<g>
		<line class="st4" x1="64.8" y1="62.2" x2="64.8" y2="67.1"/>
	</g>
	<g>
		<line class="st4" x1="64.8" y1="72" x2="64.8" y2="76.9"/>
	</g>
</g>
</svg>
