<?xml version="1.0" encoding="utf-8"?>
<!-- Generator: Adobe Illustrator 25.2.3, SVG Export Plug-In . SVG Version: 6.00 Build 0)  -->
<svg version="1.1" id="Layer_1" xmlns="http://www.w3.org/2000/svg" xmlns:xlink="http://www.w3.org/1999/xlink" x="0px" y="0px"
	 viewBox="0 0 85 85" style="enable-background:new 0 0 85 85;" xml:space="preserve">
<style type="text/css">
	.st0{fill:none;stroke:#1D4C84;stroke-width:2;stroke-linecap:round;stroke-miterlimit:10;}
	.st1{fill:none;stroke:#1D4C84;stroke-width:2;stroke-linecap:round;stroke-linejoin:round;stroke-miterlimit:10;}
	.st2{fill:none;stroke:#1D4C84;stroke-width:2;stroke-linejoin:round;stroke-miterlimit:10;}
	.st3{fill:none;stroke:#1D4C84;stroke-width:2;stroke-miterlimit:10;}
	.st4{fill:none;stroke:#92278F;stroke-width:2;stroke-miterlimit:10;}
</style>
<g>
	<line class="st0" x1="80.1" y1="72.9" x2="83.5" y2="72.9"/>
	<line class="st1" x1="1.5" y1="72.9" x2="75.5" y2="72.9"/>
	<g>
		<g>
			<g>
				<polyline class="st2" points="6.3,68.8 6.3,39.8 14.3,39.8 				"/>
				<g>
					<line class="st3" x1="12.6" y1="56.5" x2="12.6" y2="61.9"/>
					<line class="st3" x1="12.6" y1="46" x2="12.6" y2="51.3"/>
					<line class="st3" x1="12.6" y1="66.8" x2="12.6" y2="72.7"/>
				</g>
			</g>
		</g>
		<g>
			<g>
				<polyline class="st2" points="70.6,72.3 70.6,39.8 62.6,39.8 				"/>
				<g>
					<line class="st3" x1="64.3" y1="56.5" x2="64.3" y2="61.9"/>
					<line class="st3" x1="64.3" y1="46" x2="64.3" y2="51.3"/>
					<line class="st3" x1="64.3" y1="66.8" x2="64.3" y2="72.7"/>
				</g>
			</g>
		</g>
	</g>
	<g>
		<line class="st3" x1="46.4" y1="32.1" x2="52.4" y2="32.1"/>
		<g>
			<line class="st3" x1="24.4" y1="38.5" x2="52.4" y2="38.5"/>
			<line class="st3" x1="24.4" y1="32.1" x2="30.5" y2="32.1"/>
			<line class="st3" x1="24.4" y1="57.8" x2="52.4" y2="57.8"/>
			<line class="st3" x1="24.4" y1="51.3" x2="52.4" y2="51.3"/>
			<line class="st3" x1="24.4" y1="44.9" x2="52.4" y2="44.9"/>
		</g>
	</g>
	<g>
		<polyline class="st2" points="52.5,22 58.2,22 58.2,72.8 		"/>
		<polyline class="st2" points="18.6,72.8 18.6,22 24.1,22 		"/>
	</g>
	<g>
		<line class="st3" x1="45.3" y1="63.9" x2="45.3" y2="72.9"/>
		<line class="st3" x1="31.6" y1="72.9" x2="31.6" y2="63.9"/>
	</g>
	<line class="st3" x1="38.4" y1="67.1" x2="38.4" y2="72.5"/>
	<polygon class="st4" points="48.4,18.6 41.8,18.6 41.8,12.1 35,12.1 35,18.6 28.5,18.6 28.5,25.4 35,25.4 35,32 41.8,32 41.8,25.4 
		48.4,25.4 	"/>
	<line class="st3" x1="27.9" y1="63.4" x2="49" y2="63.4"/>
</g>
</svg>
