<?xml version="1.0" encoding="utf-8"?>
<!-- Generator: Adobe Illustrator 25.2.3, SVG Export Plug-In . SVG Version: 6.00 Build 0)  -->
<svg version="1.1" id="Layer_1" xmlns="http://www.w3.org/2000/svg" xmlns:xlink="http://www.w3.org/1999/xlink" x="0px" y="0px"
	 viewBox="0 0 85 85" style="enable-background:new 0 0 85 85;" xml:space="preserve">
<style type="text/css">
	.st0{fill:none;stroke:#1D4C84;stroke-width:2;stroke-linejoin:round;stroke-miterlimit:10;}
	.st1{fill:none;stroke:#1D4C84;stroke-width:2;stroke-linejoin:round;stroke-miterlimit:10.0003;}
	.st2{fill:none;stroke:#92278F;stroke-width:2;stroke-linejoin:round;stroke-miterlimit:10;}
	.st3{fill:none;stroke:#1D4C84;stroke-width:2;stroke-miterlimit:10;}
	.st4{fill:none;stroke:#92278F;stroke-width:2;stroke-miterlimit:10;}
</style>
<g>
	<g>
		<polyline class="st0" points="27.3,69.6 27.3,15.2 37.8,15.2 37.8,69.6 		"/>
		<line class="st0" x1="32.5" y1="23.9" x2="32.5" y2="45"/>
	</g>
	<g>
		
			<rect x="56.7" y="23.8" transform="matrix(0.9834 -0.1816 0.1816 0.9834 -7.3949 12.0164)" class="st1" width="10.4" height="45.3"/>
		<line class="st0" x1="60.3" y1="37.6" x2="63.5" y2="55.2"/>
	</g>
	<g>
		<g>
			<g>
				<line class="st2" x1="16.5" y1="33" x2="23.3" y2="33"/>
				<line class="st2" x1="16.5" y1="38.5" x2="23.3" y2="38.5"/>
				<line class="st2" x1="16.5" y1="43.7" x2="23.3" y2="43.7"/>
			</g>
		</g>
		<polyline class="st0" points="12.5,65.6 12.5,25.2 23.3,25.2 		"/>
	</g>
	<line class="st3" x1="7.8" y1="69.8" x2="77.2" y2="69.8"/>
	<g>
		<polyline class="st0" points="41.8,38.6 53.5,38.6 53.5,69.6 		"/>
		<rect x="43.1" y="44.9" class="st4" width="5.1" height="10.4"/>
	</g>
</g>
</svg>
