<?xml version="1.0" encoding="utf-8"?>
<!-- Generator: Adobe Illustrator 25.2.0, SVG Export Plug-In . SVG Version: 6.00 Build 0)  -->
<svg version="1.1" id="Layer_1" xmlns="http://www.w3.org/2000/svg" xmlns:xlink="http://www.w3.org/1999/xlink" x="0px" y="0px"
	 viewBox="0 0 85 85" style="enable-background:new 0 0 85 85;" xml:space="preserve">
<style type="text/css">
	.st0{fill:none;stroke:#1D4C84;stroke-width:2;stroke-linecap:round;stroke-linejoin:round;stroke-miterlimit:10;}
	.st1{fill:none;stroke:#92278F;stroke-width:2;stroke-linecap:round;stroke-linejoin:round;stroke-miterlimit:10;}
	.st2{fill:#1D4C84;}
</style>
<g>
	<path class="st0" d="M25.1,39.4c0,0,14.1,3,19.6-11.1c0.8-2,0.9-2.2,2.9-0.2c4.7,4.9,12.4,7.1,12.4,7.1l0.5,0.2c0,0,1.7,6.4,0.7,13
		c0,0-3.5,21.9-18.7,21.9h-0.4c-15.1,0-17.8-21.9-17.8-21.9"/>
	<path class="st0" d="M63.1,63.1c6.9,3.9,10-1,10-1c-4.9-4.2-4.4-6.9-4.5-10.1c-0.2-3.4,0.2-4.2,1.2-9c3.1-25.2-21.2-28.3-27.2-28.3
		c-6,0-30.4,2.9-27.2,28.3c1,4.8,1.3,5.6,1.2,9c-0.2,3.3,0.3,5.9-4.5,10.1c0,0,3.1,4.9,10,1"/>
	<path class="st1" d="M47.2,60.2c14.6-0.6,15.7-12.8,15.7-12.8s0.1-2.7-1.2-4.1"/>
	<path class="st1" d="M47.1,60.6c0,1.2-0.9,2.1-2.1,2.1h-4.2c-1.2,0-2.1-0.9-2.1-2.1v-0.9c0-1.2,0.9-2.1,2.1-2.1H45
		c1.2,0,2.1,0.9,2.1,2.1V60.6z"/>
</g>
<circle class="st2" cx="34.8" cy="45.5" r="2"/>
<circle class="st2" cx="50.9" cy="45.5" r="2"/>
</svg>
